STARTFONT 2.1
FONT -sun-helmet-medium-r-normal--20-200-75-75-p-108-adobe-fontspecific
SIZE 20 75 75
FONTBOUNDINGBOX 24 23 -4 -4

STARTPROPERTIES 28
FOUNDRY "sun"
FAMILY_NAME "helmet"
WEIGHT_NAME "medium"
SLANT "r"
SETWIDTH_NAME "normal"
ADD_STYLE_NAME ""
PIXEL_SIZE 21
POINT_SIZE 200
RESOLUTION_X 75
RESOLUTION_Y 75
SPACING "p"
AVERAGE_WIDTH 108
CHARSET_REGISTRY "adobe"
CHARSET_ENCODING "fontspecific"
COPYRIGHT "© 1999 Sun Microsystems, Inc."
RAW_PIXELSIZE 1000
RAW_POINTSIZE 964
RAW_ASCENT 893
RAW_DESCENT 216
RAW_AVERAGE_WIDTH 5207
FACE_NAME "HelmetNormalalic5"
_XMBDFED_INFO "Edited with xmbdfed 2.4."
WEIGHT 10
X_HEIGHT -2
QUAD_WIDTH 11
DEFAULT_CHAR 4
FONT_DESCENT 4
FONT_ASCENT 19
ENDPROPERTIES

CHARS 203

STARTCHAR char32
ENCODING 32
SWIDTH 25 0
DWIDTH 6 0
BBX 0 0 0 0
BITMAP
ENDCHAR

STARTCHAR char33
ENCODING 33
SWIDTH 25 0
DWIDTH 6 0
BBX 2 15 2 0
BITMAP
C0
C0
C0
C0
C0
C0
C0
C0
C0
C0
C0
00
00
00
C0
ENDCHAR

STARTCHAR char34
ENCODING 34
SWIDTH 34 0
DWIDTH 8 0
BBX 5 6 1 9
BITMAP
18
D8
48
48
90
90
ENDCHAR

STARTCHAR char35
ENCODING 35
SWIDTH 3 0
DWIDTH 11 0
BBX 10 16 0 0
BITMAP
0880
1980
1980
1980
7FC0
7FC0
1100
1100
3300
3300
FFC0
7FC0
2200
2200
2200
6600
ENDCHAR

STARTCHAR char36
ENCODING 36
SWIDTH 12 0
DWIDTH 13 0
BBX 12 18 0 -2
BITMAP
0600
0F80
3FC0
7260
6270
6600
7600
3E00
1FC0
07E0
0670
C630
E430
6470
3FE0
1FC0
0600
0600
ENDCHAR

STARTCHAR char37
ENCODING 37
SWIDTH 29 0
DWIDTH 17 0
BBX 17 15 -1 0
BITMAP
300000
7C3000
E63000
C62000
C66000
C64000
C6DE00
C69B00
6CB180
393180
013180
023180
023180
021B00
040E00
ENDCHAR

STARTCHAR char38
ENCODING 38
SWIDTH 8 0
DWIDTH 12 0
BBX 11 14 0 0
BITMAP
1E00
3300
2300
3300
3600
1E00
3C00
7CC0
E6C0
C380
C380
C3C0
63C0
3C60
ENDCHAR

STARTCHAR char39
ENCODING 39
SWIDTH 17 0
DWIDTH 4 0
BBX 2 5 1 10
BITMAP
40
40
80
80
C0
ENDCHAR

STARTCHAR char40
ENCODING 40
SWIDTH 30 0
DWIDTH 7 0
BBX 4 18 2 -3
BITMAP
10
20
60
60
40
C0
C0
C0
C0
C0
C0
C0
C0
C0
40
60
20
20
ENDCHAR

STARTCHAR char41
ENCODING 41
SWIDTH 30 0
DWIDTH 7 0
BBX 4 18 0 -3
BITMAP
80
40
40
60
20
20
30
30
30
30
30
30
30
30
60
60
40
C0
ENDCHAR

STARTCHAR char42
ENCODING 42
SWIDTH 30 0
DWIDTH 7 0
BBX 6 7 0 8
BITMAP
30
30
FC
7C
78
6C
28
ENDCHAR

STARTCHAR char43
ENCODING 43
SWIDTH 16 0
DWIDTH 14 0
BBX 12 12 0 0
BITMAP
0600
0600
0600
0600
0600
FFF0
0600
0600
0600
0600
0600
0600
ENDCHAR

STARTCHAR char44
ENCODING 44
SWIDTH 21 0
DWIDTH 5 0
BBX 3 5 1 -3
BITMAP
C0
E0
60
E0
C0
ENDCHAR

STARTCHAR char45
ENCODING 45
SWIDTH 34 0
DWIDTH 8 0
BBX 6 1 1 5
BITMAP
FC
ENDCHAR

STARTCHAR char46
ENCODING 46
SWIDTH 21 0
DWIDTH 5 0
BBX 2 1 1 0
BITMAP
C0
ENDCHAR

STARTCHAR char47
ENCODING 47
SWIDTH 34 0
DWIDTH 8 0
BBX 7 15 0 0
BITMAP
06
06
0C
0C
08
18
18
10
30
20
60
60
40
C0
80
ENDCHAR

STARTCHAR char48
ENCODING 48
SWIDTH 8 0
DWIDTH 12 0
BBX 10 14 0 0
BITMAP
3F00
7180
6180
C0C0
C0C0
C0C0
C0C0
C0C0
C0C0
C0C0
E0C0
6180
3380
1E00
ENDCHAR

STARTCHAR char49
ENCODING 49
SWIDTH 8 0
DWIDTH 12 0
BBX 5 15 2 0
BITMAP
18
18
38
F8
18
18
18
18
18
18
18
18
18
18
18
ENDCHAR

STARTCHAR char50
ENCODING 50
SWIDTH 8 0
DWIDTH 12 0
BBX 10 15 0 -1
BITMAP
3F00
7180
E0C0
C0C0
40C0
01C0
0380
0700
1C00
3800
7000
E000
E000
FFC0
E000
ENDCHAR

STARTCHAR char51
ENCODING 51
SWIDTH 8 0
DWIDTH 12 0
BBX 10 14 0 0
BITMAP
1E00
6100
6180
4180
0180
0700
0F00
0380
0180
C1C0
C0C0
6180
7300
1E00
ENDCHAR

STARTCHAR char52
ENCODING 52
SWIDTH 8 0
DWIDTH 12 0
BBX 10 15 0 0
BITMAP
0300
0700
0700
0F00
1F00
1B00
3300
3300
6300
C300
FFC0
0300
0300
0300
0300
ENDCHAR

STARTCHAR char53
ENCODING 53
SWIDTH 8 0
DWIDTH 12 0
BBX 10 14 0 0
BITMAP
3F80
6000
6000
6000
6000
7F00
6180
00C0
00C0
00C0
C0C0
6180
7380
1E00
ENDCHAR

STARTCHAR char54
ENCODING 54
SWIDTH 8 0
DWIDTH 12 0
BBX 9 14 1 0
BITMAP
3E00
6300
4180
C000
C000
DE00
E300
C180
C180
C180
C180
4180
2300
3E00
ENDCHAR

STARTCHAR char55
ENCODING 55
SWIDTH 8 0
DWIDTH 12 0
BBX 9 14 1 0
BITMAP
FF80
0300
0300
0600
0C00
0C00
1800
1800
1800
3000
3000
3000
7000
6000
ENDCHAR

STARTCHAR char56
ENCODING 56
SWIDTH 8 0
DWIDTH 12 0
BBX 10 14 0 0
BITMAP
1F00
2180
60C0
60C0
61C0
3380
3F80
6180
E0C0
C040
C0C0
60C0
3380
1F00
ENDCHAR

STARTCHAR char57
ENCODING 57
SWIDTH 8 0
DWIDTH 12 0
BBX 10 14 0 0
BITMAP
1F00
6380
C180
C0C0
C0C0
C1C0
61C0
3EC0
00C0
00C0
C180
E180
7300
3E00
ENDCHAR

STARTCHAR char58
ENCODING 58
SWIDTH 25 0
DWIDTH 6 0
BBX 2 11 2 0
BITMAP
C0
00
00
00
00
00
00
00
00
00
C0
ENDCHAR

STARTCHAR char59
ENCODING 59
SWIDTH 25 0
DWIDTH 6 0
BBX 2 14 2 -3
BITMAP
C0
00
00
00
00
00
00
00
00
80
C0
40
C0
80
ENDCHAR

STARTCHAR char60
ENCODING 60
SWIDTH 8 0
DWIDTH 12 0
BBX 11 11 0 0
BITMAP
0020
00E0
0380
0E00
3800
C000
F000
1C00
0700
01C0
0060
ENDCHAR

STARTCHAR char61
ENCODING 61
SWIDTH 16 0
DWIDTH 14 0
BBX 14 4 -1 4
BITMAP
FFFC
0000
0000
FFFC
ENDCHAR

STARTCHAR char62
ENCODING 62
SWIDTH 8 0
DWIDTH 12 0
BBX 11 11 0 0
BITMAP
8000
E000
3800
0E00
03C0
0060
00E0
0700
1C00
7000
C000
ENDCHAR

STARTCHAR char63
ENCODING 63
SWIDTH 3 0
DWIDTH 11 0
BBX 10 14 0 0
BITMAP
1F00
2180
60C0
C0C0
01C0
0380
0300
0600
0C00
0C00
0C00
0000
0000
0C00
ENDCHAR

STARTCHAR char64
ENCODING 64
SWIDTH 11 0
DWIDTH 23 0
BBX 15 15 3 0
BITMAP
07E0
1818
300C
6394
4676
CC66
D826
D826
D866
D844
4CC8
6770
3004
1818
07E0
ENDCHAR

STARTCHAR char65
ENCODING 65
SWIDTH 12 0
DWIDTH 13 0
BBX 13 14 -1 0
BITMAP
0700
0700
0580
0D80
0C80
18C0
1840
18E0
3FE0
3020
6030
6030
6038
4018
ENDCHAR

STARTCHAR char66
ENCODING 66
SWIDTH 12 0
DWIDTH 13 0
BBX 11 14 1 0
BITMAP
FF00
C1C0
C0E0
C060
C0C0
C1C0
FF80
C0C0
C060
C060
C060
C0E0
C1C0
FF80
ENDCHAR

STARTCHAR char67
ENCODING 67
SWIDTH 16 0
DWIDTH 14 0
BBX 13 14 0 0
BITMAP
1F80
3060
6030
6018
C000
C000
C000
C000
C018
E018
6030
7070
38E0
0F80
ENDCHAR

STARTCHAR char68
ENCODING 68
SWIDTH 16 0
DWIDTH 14 0
BBX 11 14 1 0
BITMAP
FF00
C180
C0C0
C060
C060
C060
C060
C060
C060
C060
C0C0
C1C0
C380
FE00
ENDCHAR

STARTCHAR char69
ENCODING 69
SWIDTH 12 0
DWIDTH 13 0
BBX 10 14 1 0
BITMAP
FFC0
C000
C000
C000
C000
C000
FF80
C000
C000
C000
C000
C000
C000
FFC0
ENDCHAR

STARTCHAR char70
ENCODING 70
SWIDTH 3 0
DWIDTH 11 0
BBX 10 14 1 0
BITMAP
FFC0
C000
C000
C000
C000
C000
FF00
C000
C000
C000
C000
C000
C000
C000
ENDCHAR

STARTCHAR char71
ENCODING 71
SWIDTH 20 0
DWIDTH 15 0
BBX 13 14 0 0
BITMAP
1F80
3060
6030
E018
C000
C000
C1F8
C018
C018
E018
6038
7038
38F8
0F98
ENDCHAR

STARTCHAR char72
ENCODING 72
SWIDTH 16 0
DWIDTH 14 0
BBX 11 14 1 0
BITMAP
C060
C060
C060
C060
C060
C060
FFE0
C060
C060
C060
C060
C060
C060
C060
ENDCHAR

STARTCHAR char73
ENCODING 73
SWIDTH 21 0
DWIDTH 5 0
BBX 2 14 1 0
BITMAP
C0
C0
C0
C0
C0
C0
C0
C0
C0
C0
C0
C0
C0
C0
ENDCHAR

STARTCHAR char74
ENCODING 74
SWIDTH 43 0
DWIDTH 10 0
BBX 8 14 0 0
BITMAP
03
03
03
03
03
03
03
03
03
C3
C3
C3
66
3C
ENDCHAR

STARTCHAR char75
ENCODING 75
SWIDTH 12 0
DWIDTH 13 0
BBX 12 14 1 0
BITMAP
C0E0
C1C0
C380
C700
CC00
DC00
FC00
E600
C700
C380
C180
C0C0
C0E0
C070
ENDCHAR

STARTCHAR char76
ENCODING 76
SWIDTH 3 0
DWIDTH 11 0
BBX 9 14 1 0
BITMAP
C000
C000
C000
C000
C000
C000
C000
C000
C000
C000
C000
C000
C000
FF80
ENDCHAR

STARTCHAR char77
ENCODING 77
SWIDTH 29 0
DWIDTH 17 0
BBX 15 14 0 0
BITMAP
E00E
F01E
F01E
F01E
D836
D836
CC66
CC66
C446
C6C6
C6C6
C386
C386
C106
ENDCHAR

STARTCHAR char78
ENCODING 78
SWIDTH 16 0
DWIDTH 14 0
BBX 11 14 1 0
BITMAP
C060
E060
F060
D060
D860
CC60
CC60
C660
C360
C360
C1E0
C1E0
C0E0
C060
ENDCHAR

STARTCHAR char79
ENCODING 79
SWIDTH 25 0
DWIDTH 16 0
BBX 14 14 0 0
BITMAP
1FE0
3070
6018
601C
C00C
C00C
C00C
C00C
C00C
C01C
6018
7038
3E70
0FC0
ENDCHAR

STARTCHAR char80
ENCODING 80
SWIDTH 8 0
DWIDTH 12 0
BBX 10 14 1 0
BITMAP
FF00
C180
C0C0
C0C0
C0C0
C0C0
C380
FF00
C000
C000
C000
C000
C000
C000
ENDCHAR

STARTCHAR char81
ENCODING 81
SWIDTH 25 0
DWIDTH 16 0
BBX 14 15 0 -1
BITMAP
1FE0
3870
6038
6018
C00C
C00C
C00C
C00C
C00C
C09C
61D8
70F0
38F0
0FB8
0018
ENDCHAR

STARTCHAR char82
ENCODING 82
SWIDTH 12 0
DWIDTH 13 0
BBX 11 15 1 0
BITMAP
8000
FF80
C0C0
C060
C060
C060
C0C0
C3C0
FF80
C1C0
C0C0
C0C0
C0E0
C0E0
C0E0
ENDCHAR

STARTCHAR char83
ENCODING 83
SWIDTH 16 0
DWIDTH 14 0
BBX 12 14 0 0
BITMAP
1FC0
30E0
6060
6020
7000
3E00
1FC0
01E0
0070
E030
6030
6070
38E0
0F80
ENDCHAR

STARTCHAR char84
ENCODING 84
SWIDTH 3 0
DWIDTH 11 0
BBX 11 14 -1 0
BITMAP
FFE0
0600
0600
0600
0600
0600
0600
0600
0600
0600
0600
0600
0600
0600
ENDCHAR

STARTCHAR char85
ENCODING 85
SWIDTH 16 0
DWIDTH 14 0
BBX 12 14 0 0
BITMAP
C030
C030
C030
C030
C030
C030
C030
C030
C030
C030
C030
6070
78E0
1F80
ENDCHAR

STARTCHAR char86
ENCODING 86
SWIDTH 12 0
DWIDTH 13 0
BBX 13 14 -1 0
BITMAP
E030
6030
6030
3070
3060
3060
18C0
18C0
18C0
0D80
0D80
0D80
0700
0700
ENDCHAR

STARTCHAR char87
ENCODING 87
SWIDTH 33 0
DWIDTH 18 0
BBX 18 14 -1 0
BITMAP
C1C0C0
C1E0C0
61E180
616180
632180
633180
333300
323300
363300
361A00
161E00
1C1E00
1C0E00
1C0C00
ENDCHAR

STARTCHAR char88
ENCODING 88
SWIDTH 12 0
DWIDTH 13 0
BBX 13 14 -1 0
BITMAP
6030
3070
38E0
19C0
0D80
0F00
0700
0F00
0D80
19C0
38C0
3060
7070
6030
ENDCHAR

STARTCHAR char89
ENCODING 89
SWIDTH 12 0
DWIDTH 13 0
BBX 13 14 -1 0
BITMAP
6038
7030
3070
1860
1CC0
0DC0
0780
0700
0300
0300
0300
0300
0300
0300
ENDCHAR

STARTCHAR char90
ENCODING 90
SWIDTH 8 0
DWIDTH 12 0
BBX 11 14 0 0
BITMAP
FFE0
00C0
01C0
0380
0700
0600
0C00
1C00
3800
3000
7000
E000
C000
FFE0
ENDCHAR

STARTCHAR char91
ENCODING 91
SWIDTH 30 0
DWIDTH 7 0
BBX 4 17 2 -3
BITMAP
F0
C0
C0
C0
C0
C0
C0
C0
C0
C0
C0
C0
C0
C0
C0
C0
F0
ENDCHAR

STARTCHAR char92
ENCODING 92
SWIDTH 25 0
DWIDTH 6 0
BBX 6 15 0 0
BITMAP
80
C0
40
40
60
20
20
30
10
10
18
18
08
0C
0C
ENDCHAR

STARTCHAR char93
ENCODING 93
SWIDTH 30 0
DWIDTH 7 0
BBX 4 17 0 -3
BITMAP
F0
30
30
30
30
30
30
30
30
30
30
30
30
30
30
30
F0
ENDCHAR

STARTCHAR char94
ENCODING 94
SWIDTH 0 0
DWIDTH 0 0
BBX 6 2 -3 16
BITMAP
30
78
ENDCHAR

STARTCHAR char95
ENCODING 95
SWIDTH 8 0
DWIDTH 12 0
BBX 12 1 0 -3
BITMAP
FFF0
ENDCHAR

STARTCHAR char96
ENCODING 96
SWIDTH 0 0
DWIDTH 0 0
BBX 3 1 -2 12
BITMAP
40
ENDCHAR

STARTCHAR char97
ENCODING 97
SWIDTH 3 0
DWIDTH 11 0
BBX 10 11 0 0
BITMAP
3E00
6300
6180
4180
0780
3F80
E180
C180
C380
E7C0
3CC0
ENDCHAR

STARTCHAR char98
ENCODING 98
SWIDTH 8 0
DWIDTH 12 0
BBX 10 14 1 0
BITMAP
C000
C000
C000
DE00
F380
E180
C1C0
C0C0
C0C0
C0C0
C0C0
C180
E380
FF00
ENDCHAR

STARTCHAR char99
ENCODING 99
SWIDTH 3 0
DWIDTH 11 0
BBX 10 11 0 0
BITMAP
1F00
3180
60C0
E0C0
C000
C000
C000
C0C0
60C0
7180
1F00
ENDCHAR

STARTCHAR char100
ENCODING 100
SWIDTH 8 0
DWIDTH 12 0
BBX 10 14 0 0
BITMAP
00C0
00C0
00C0
1EC0
73C0
61C0
C0C0
C0C0
C0C0
C0C0
C0C0
E1C0
73C0
3EC0
ENDCHAR

STARTCHAR char101
ENCODING 101
SWIDTH 3 0
DWIDTH 11 0
BBX 10 11 0 0
BITMAP
1E00
3300
6180
C080
C0C0
FFC0
C000
C000
6180
7180
1E00
ENDCHAR

STARTCHAR char102
ENCODING 102
SWIDTH 25 0
DWIDTH 6 0
BBX 5 14 0 0
BITMAP
78
60
60
F8
E0
60
60
60
60
60
60
60
60
60
ENDCHAR

STARTCHAR char103
ENCODING 103
SWIDTH 8 0
DWIDTH 12 0
BBX 10 14 0 -3
BITMAP
3FC0
73C0
61C0
C1C0
C0C0
C0C0
C0C0
61C0
7BC0
3EC0
00C0
40C0
6180
3F00
ENDCHAR

STARTCHAR char104
ENCODING 104
SWIDTH 8 0
DWIDTH 12 0
BBX 9 14 1 0
BITMAP
C000
C000
C000
DF00
E700
C380
C180
C180
C180
C180
C180
C180
C180
C180
ENDCHAR

STARTCHAR char105
ENCODING 105
SWIDTH 21 0
DWIDTH 5 0
BBX 2 14 1 0
BITMAP
C0
00
00
C0
C0
C0
C0
C0
C0
C0
C0
C0
C0
C0
ENDCHAR

STARTCHAR char106
ENCODING 106
SWIDTH 21 0
DWIDTH 5 0
BBX 4 17 -1 -3
BITMAP
30
00
00
30
30
30
30
30
30
30
30
30
30
30
30
30
E0
ENDCHAR

STARTCHAR char107
ENCODING 107
SWIDTH 3 0
DWIDTH 11 0
BBX 9 14 1 0
BITMAP
C000
C000
C000
C380
C700
CE00
DC00
F800
FC00
CC00
C600
C700
C300
C180
ENDCHAR

STARTCHAR char108
ENCODING 108
SWIDTH 21 0
DWIDTH 5 0
BBX 2 14 1 0
BITMAP
C0
C0
C0
C0
C0
C0
C0
C0
C0
C0
C0
C0
C0
C0
ENDCHAR

STARTCHAR char109
ENCODING 109
SWIDTH 29 0
DWIDTH 17 0
BBX 14 11 0 0
BITMAP
DE78
F688
E38C
C30C
C30C
C30C
C30C
C30C
C30C
C30C
C30C
ENDCHAR

STARTCHAR char110
ENCODING 110
SWIDTH 8 0
DWIDTH 12 0
BBX 9 11 1 0
BITMAP
DF00
F300
E180
C180
C180
C180
C180
C180
C180
C180
C180
ENDCHAR

STARTCHAR char111
ENCODING 111
SWIDTH 8 0
DWIDTH 12 0
BBX 10 11 0 0
BITMAP
1E00
7380
6180
E0C0
C0C0
C0C0
C0C0
C0C0
6180
7180
3F00
ENDCHAR

STARTCHAR char112
ENCODING 112
SWIDTH 8 0
DWIDTH 12 0
BBX 10 14 1 -3
BITMAP
DE00
F380
E180
C1C0
C0C0
C0C0
C0C0
C0C0
C1C0
E380
FF00
C000
C000
C000
ENDCHAR

STARTCHAR char113
ENCODING 113
SWIDTH 8 0
DWIDTH 12 0
BBX 10 14 0 -3
BITMAP
1FC0
73C0
61C0
C0C0
C0C0
C0C0
C0C0
C0C0
61C0
73C0
1EC0
00C0
00C0
00C0
ENDCHAR

STARTCHAR char114
ENCODING 114
SWIDTH 30 0
DWIDTH 7 0
BBX 6 11 1 0
BITMAP
DC
F4
E0
E0
C0
C0
C0
C0
C0
C0
C0
ENDCHAR

STARTCHAR char115
ENCODING 115
SWIDTH 43 0
DWIDTH 10 0
BBX 9 11 0 0
BITMAP
1E00
3300
6100
6180
7800
1F00
0380
E180
E180
6300
3E00
ENDCHAR

STARTCHAR char116
ENCODING 116
SWIDTH 25 0
DWIDTH 6 0
BBX 6 14 0 0
BITMAP
60
60
60
F8
60
60
60
60
60
60
60
60
74
38
ENDCHAR

STARTCHAR char117
ENCODING 117
SWIDTH 8 0
DWIDTH 12 0
BBX 9 11 1 0
BITMAP
C180
C180
C180
C180
C180
C180
C180
C180
C380
E380
3D80
ENDCHAR

STARTCHAR char118
ENCODING 118
SWIDTH 43 0
DWIDTH 10 0
BBX 10 11 -1 0
BITMAP
60C0
6180
6180
2180
3300
3300
1300
1A00
1E00
1E00
0C00
ENDCHAR

STARTCHAR char119
ENCODING 119
SWIDTH 20 0
DWIDTH 15 0
BBX 15 11 -1 0
BITMAP
C30C
638C
638C
628C
6698
36D8
36D8
3458
1C70
1C70
1C70
ENDCHAR

STARTCHAR char120
ENCODING 120
SWIDTH 43 0
DWIDTH 10 0
BBX 11 11 -1 0
BITMAP
61C0
3180
1B80
1B00
0E00
0E00
0E00
1B00
3180
71C0
60C0
ENDCHAR

STARTCHAR char121
ENCODING 121
SWIDTH 43 0
DWIDTH 10 0
BBX 11 14 -1 -3
BITMAP
60C0
60C0
60C0
31C0
3180
1180
1B00
1B00
0F00
0E00
0600
0C00
2C00
3800
ENDCHAR

STARTCHAR char122
ENCODING 122
SWIDTH 43 0
DWIDTH 10 0
BBX 9 11 0 0
BITMAP
FF00
0700
0600
0C00
1C00
1800
3000
7000
6000
E000
FF80
ENDCHAR

STARTCHAR char123
ENCODING 123
SWIDTH 30 0
DWIDTH 7 0
BBX 5 19 1 -4
BITMAP
38
70
60
60
60
60
60
60
40
80
40
60
60
60
60
60
60
70
38
ENDCHAR

STARTCHAR char124
ENCODING 124
SWIDTH 25 0
DWIDTH 6 0
BBX 2 15 2 0
BITMAP
C0
C0
C0
C0
C0
C0
C0
C0
C0
C0
C0
C0
C0
C0
C0
ENDCHAR

STARTCHAR char125
ENCODING 125
SWIDTH 30 0
DWIDTH 7 0
BBX 5 19 1 -4
BITMAP
E0
70
30
30
20
20
20
30
10
08
30
30
30
30
30
30
30
70
E0
ENDCHAR

STARTCHAR char126
ENCODING 126
SWIDTH 0 0
DWIDTH 0 0
BBX 8 2 -4 16
BITMAP
7A
DE
ENDCHAR

STARTCHAR char128
ENCODING 128
SWIDTH 8 0
DWIDTH 12 0
BBX 11 15 0 0
BITMAP
07E0
0C60
1820
3000
3000
6000
FFC0
6000
FF80
6000
3000
3000
3800
1C20
07E0
ENDCHAR

STARTCHAR char130
ENCODING 130
SWIDTH 17 0
DWIDTH 4 0
BBX 2 5 1 -3
BITMAP
80
C0
40
C0
80
ENDCHAR

STARTCHAR char131
ENCODING 131
SWIDTH 0 0
DWIDTH 0 0
BBX 6 2 -3 16
BITMAP
30
78
ENDCHAR

STARTCHAR char132
ENCODING 132
SWIDTH 34 0
DWIDTH 8 0
BBX 5 4 1 -3
BITMAP
D8
48
D8
90
ENDCHAR

STARTCHAR char133
ENCODING 133
SWIDTH 7 0
DWIDTH 22 0
BBX 16 1 2 0
BITMAP
C183
ENDCHAR

STARTCHAR char134
ENCODING 134
SWIDTH 43 0
DWIDTH 10 0
BBX 9 16 0 -2
BITMAP
0C00
0C00
0C00
0C00
FF80
0C00
0C00
0C00
0C00
0C00
0C00
0C00
0C00
0C00
0C00
0C00
ENDCHAR

STARTCHAR char136
ENCODING 136
SWIDTH 0 0
DWIDTH 0 0
BBX 6 2 -3 12
BITMAP
70
58
ENDCHAR

STARTCHAR char138
ENCODING 138
SWIDTH 3 0
DWIDTH 21 0
BBX 0 0 0 0
BITMAP
ENDCHAR

STARTCHAR char139
ENCODING 139
SWIDTH 30 0
DWIDTH 7 0
BBX 3 7 2 2
BITMAP
20
60
C0
80
E0
60
20
ENDCHAR

STARTCHAR char140
ENCODING 140
SWIDTH 7 0
DWIDTH 22 0
BBX 21 14 -1 0
BITMAP
1FFFF8
383800
701800
601800
E01800
C01800
C01FF0
C01800
C01800
E01800
701800
703800
3C7FF8
0FDFF8
ENDCHAR

STARTCHAR char141
ENCODING 141
SWIDTH 3 0
DWIDTH 21 0
BBX 0 0 0 0
BITMAP
ENDCHAR

STARTCHAR char145
ENCODING 145
SWIDTH 21 0
DWIDTH 5 0
BBX 2 4 1 10
BITMAP
40
80
80
C0
ENDCHAR

STARTCHAR char146
ENCODING 146
SWIDTH 21 0
DWIDTH 5 0
BBX 2 6 1 9
BITMAP
80
C0
40
40
80
80
ENDCHAR

STARTCHAR char147
ENCODING 147
SWIDTH 34 0
DWIDTH 8 0
BBX 5 4 1 10
BITMAP
48
D0
90
D8
ENDCHAR

STARTCHAR char148
ENCODING 148
SWIDTH 34 0
DWIDTH 8 0
BBX 5 6 1 9
BITMAP
18
D8
48
48
98
90
ENDCHAR

STARTCHAR char149
ENCODING 149
SWIDTH 30 0
DWIDTH 7 0
BBX 5 5 1 5
BITMAP
70
F8
F8
F8
70
ENDCHAR

STARTCHAR char150
ENCODING 150
SWIDTH 8 0
DWIDTH 12 0
BBX 10 1 0 5
BITMAP
FFC0
ENDCHAR

STARTCHAR char151
ENCODING 151
SWIDTH 16 0
DWIDTH 14 0
BBX 14 1 -1 6
BITMAP
FFFC
ENDCHAR

STARTCHAR char152
ENCODING 152
SWIDTH 0 0
DWIDTH 0 0
BBX 6 2 -3 12
BITMAP
7C
D8
ENDCHAR

STARTCHAR char153
ENCODING 153
SWIDTH 33 0
DWIDTH 18 0
BBX 16 8 0 6
BITMAP
C081
BC83
B4C5
30C5
30EB
30AB
30B3
7997
ENDCHAR

STARTCHAR char155
ENCODING 155
SWIDTH 30 0
DWIDTH 7 0
BBX 3 7 2 2
BITMAP
80
C0
60
20
E0
80
80
ENDCHAR

STARTCHAR char156
ENCODING 156
SWIDTH 38 0
DWIDTH 19 0
BBX 17 11 0 0
BITMAP
1E3E00
336300
61C380
C1C180
C08180
C0FF80
C0C000
C0C000
41C180
63E300
3E3E00
ENDCHAR

STARTCHAR char157
ENCODING 157
SWIDTH 3 0
DWIDTH 21 0
BBX 0 0 0 0
BITMAP
ENDCHAR

STARTCHAR char159
ENCODING 159
SWIDTH 12 0
DWIDTH 13 0
BBX 13 18 -1 0
BITMAP
0080
0C80
0000
E018
6030
3030
3860
18E0
0CC0
0DC0
0780
0300
0300
0300
0300
0300
0300
0300
ENDCHAR

STARTCHAR char160
ENCODING 160
SWIDTH 25 0
DWIDTH 6 0
BBX 0 0 0 0
BITMAP
ENDCHAR

STARTCHAR char161
ENCODING 161
SWIDTH 25 0
DWIDTH 6 0
BBX 2 14 1 0
BITMAP
C0
00
00
C0
C0
C0
C0
C0
C0
C0
C0
C0
C0
C0
ENDCHAR

STARTCHAR char162
ENCODING 162
SWIDTH 3 0
DWIDTH 11 0
BBX 10 15 0 -2
BITMAP
0C00
0C00
1F00
7F80
6DC0
ECC0
CC00
CC00
CC00
C8C0
69C0
7B80
3F00
0C00
0C00
ENDCHAR

STARTCHAR char163
ENCODING 163
SWIDTH 8 0
DWIDTH 12 0
BBX 12 14 0 0
BITMAP
1F80
70C0
6060
E060
6000
7000
FE00
3E00
1800
1800
1800
3020
7C60
E7C0
ENDCHAR

STARTCHAR char164
ENCODING 164
SWIDTH 0 0
DWIDTH 0 0
BBX 3 2 -1 15
BITMAP
40
80
ENDCHAR

STARTCHAR char165
ENCODING 165
SWIDTH 0 0
DWIDTH 0 0
BBX 6 2 -3 16
BITMAP
08
70
ENDCHAR

STARTCHAR char166
ENCODING 166
SWIDTH 3 0
DWIDTH 21 0
BBX 0 0 0 0
BITMAP
ENDCHAR

STARTCHAR char167
ENCODING 167
SWIDTH 3 0
DWIDTH 11 0
BBX 10 18 0 -4
BITMAP
1F00
7380
6180
7000
7800
7E00
C700
C380
C0C0
F0C0
78C0
1F80
0700
0300
6180
6380
7700
3E00
ENDCHAR

STARTCHAR char168
ENCODING 168
SWIDTH 0 0
DWIDTH 0 0
BBX 6 1 -3 12
BITMAP
CC
ENDCHAR

STARTCHAR char169
ENCODING 169
SWIDTH 25 0
DWIDTH 16 0
BBX 14 14 0 0
BITMAP
0780
0860
3010
23C8
4C44
8844
9804
9804
9804
9804
4C48
2388
1030
0FC0
ENDCHAR

STARTCHAR char170
ENCODING 170
SWIDTH 0 0
DWIDTH 0 0
BBX 6 2 -3 16
BITMAP
0C
CC
ENDCHAR

STARTCHAR char171
ENCODING 171
SWIDTH 34 0
DWIDTH 8 0
BBX 7 7 0 2
BITMAP
22
26
EC
88
EC
26
22
ENDCHAR

STARTCHAR char172
ENCODING 172
SWIDTH 20 0
DWIDTH 15 0
BBX 14 6 0 0
BITMAP
FFFC
000C
000C
000C
000C
000C
ENDCHAR

STARTCHAR char174
ENCODING 174
SWIDTH 25 0
DWIDTH 16 0
BBX 14 13 0 0
BITMAP
0FC0
1030
2FC8
4668
8664
84E4
8704
8784
86C4
4E64
2008
1030
0FC0
ENDCHAR

STARTCHAR char176
ENCODING 176
SWIDTH 25 0
DWIDTH 6 0
BBX 6 6 0 8
BITMAP
70
88
84
84
8C
78
ENDCHAR

STARTCHAR char177
ENCODING 177
SWIDTH 3 0
DWIDTH 11 0
BBX 10 13 0 0
BITMAP
0C00
0C00
0C00
0C00
0C00
FFC0
0C00
0C00
0C00
0C00
0C00
0000
FFC0
ENDCHAR

STARTCHAR char179
ENCODING 179
SWIDTH 3 0
DWIDTH 21 0
BBX 0 0 0 0
BITMAP
ENDCHAR

STARTCHAR char180
ENCODING 180
SWIDTH 0 0
DWIDTH 0 0
BBX 3 2 -1 11
BITMAP
40
80
ENDCHAR

STARTCHAR char182
ENCODING 182
SWIDTH 20 0
DWIDTH 15 0
BBX 9 17 2 -3
BITMAP
3F80
7980
F980
F980
F980
F980
7980
1980
1980
1980
1980
1980
1980
1980
1980
1980
1980
ENDCHAR

STARTCHAR char183
ENCODING 183
SWIDTH 17 0
DWIDTH 4 0
BBX 2 3 1 5
BITMAP
C0
C0
C0
ENDCHAR

STARTCHAR char184
ENCODING 184
SWIDTH 0 0
DWIDTH 0 0
BBX 2 3 -1 -4
BITMAP
C0
40
C0
ENDCHAR

STARTCHAR char185
ENCODING 185
SWIDTH 3 0
DWIDTH 21 0
BBX 0 0 0 0
BITMAP
ENDCHAR

STARTCHAR char186
ENCODING 186
SWIDTH 0 0
DWIDTH 0 0
BBX 8 2 -4 16
BITMAP
7A
DE
ENDCHAR

STARTCHAR char187
ENCODING 187
SWIDTH 34 0
DWIDTH 8 0
BBX 7 7 0 2
BITMAP
88
CC
66
22
66
CC
88
ENDCHAR

STARTCHAR char189
ENCODING 189
SWIDTH 3 0
DWIDTH 21 0
BBX 0 0 0 0
BITMAP
ENDCHAR

STARTCHAR char191
ENCODING 191
SWIDTH 3 0
DWIDTH 11 0
BBX 9 14 0 0
BITMAP
0C00
0000
0000
0C00
0C00
1800
3800
7000
E000
C180
C180
C180
6300
3E00
ENDCHAR

STARTCHAR char192
ENCODING 192
SWIDTH 12 0
DWIDTH 13 0
BBX 13 17 -1 0
BITMAP
0600
0000
0700
0700
0780
0D80
0D80
0CC0
18C0
1840
38E0
3FE0
3020
6030
6030
6038
4018
ENDCHAR

STARTCHAR char193
ENCODING 193
SWIDTH 12 0
DWIDTH 13 0
BBX 13 17 -1 0
BITMAP
0300
0200
0700
0700
0780
0D80
0D80
0CC0
18C0
1840
38E0
3FE0
3020
6030
6030
6038
4018
ENDCHAR

STARTCHAR char194
ENCODING 194
SWIDTH 12 0
DWIDTH 13 0
BBX 13 18 -1 0
BITMAP
0700
0D80
0000
0700
0700
0780
0D80
0D80
0CC0
18C0
1840
38E0
3FE0
3020
6030
6030
6038
4018
ENDCHAR

STARTCHAR char195
ENCODING 195
SWIDTH 12 0
DWIDTH 13 0
BBX 13 19 -1 0
BITMAP
0400
1EC0
1BC0
0000
0700
0700
0700
0D80
0D80
0CC0
18C0
1840
38E0
3FE0
3020
6030
6030
6038
4018
ENDCHAR

STARTCHAR char196
ENCODING 196
SWIDTH 12 0
DWIDTH 13 0
BBX 13 18 -1 0
BITMAP
0180
0D80
0000
0200
0700
0700
0D80
0D80
0C80
18C0
18C0
39E0
3FE0
3020
6030
6030
6038
4018
ENDCHAR

STARTCHAR char197
ENCODING 197
SWIDTH 12 0
DWIDTH 13 0
BBX 13 19 -1 0
BITMAP
0700
0580
0580
0300
0600
0700
0700
0D80
0D80
0C80
18C0
1840
38E0
3FE0
3020
6030
6030
6038
4018
ENDCHAR

STARTCHAR char198
ENCODING 198
SWIDTH 42 0
DWIDTH 20 0
BBX 19 14 -1 0
BITMAP
07FFC0
046000
0C6000
0C6000
186000
186000
107FC0
306000
3FE000
606000
606000
606000
C06000
C07FE0
ENDCHAR

STARTCHAR char199
ENCODING 199
SWIDTH 16 0
DWIDTH 14 0
BBX 13 18 0 -4
BITMAP
1F80
3860
6030
6018
C000
C000
C000
C000
C018
E018
6030
7070
38E0
0F80
0000
0600
0200
0400
ENDCHAR

STARTCHAR char200
ENCODING 200
SWIDTH 12 0
DWIDTH 13 0
BBX 10 17 1 0
BITMAP
1800
0000
0000
FFC0
C000
C000
C000
C000
C000
FF80
C000
C000
C000
C000
C000
C000
FFC0
ENDCHAR

STARTCHAR char201
ENCODING 201
SWIDTH 12 0
DWIDTH 13 0
BBX 10 17 1 0
BITMAP
0C00
0800
0000
FFC0
C000
C000
C000
C000
C000
FF80
C000
C000
C000
C000
C000
C000
FFC0
ENDCHAR

STARTCHAR char202
ENCODING 202
SWIDTH 12 0
DWIDTH 13 0
BBX 10 18 1 0
BITMAP
1C00
3600
0000
0000
FFC0
C000
C000
C000
C000
C000
FF80
C000
C000
C000
C000
C000
C000
FFC0
ENDCHAR

STARTCHAR char203
ENCODING 203
SWIDTH 12 0
DWIDTH 13 0
BBX 10 18 1 0
BITMAP
0600
3600
0000
0000
FFC0
C000
C000
C000
C000
C000
FF80
C000
C000
C000
C000
C000
C000
FFC0
ENDCHAR

STARTCHAR char204
ENCODING 204
SWIDTH 21 0
DWIDTH 5 0
BBX 3 17 0 0
BITMAP
40
00
60
60
60
60
60
60
60
60
60
60
60
60
60
60
60
ENDCHAR

STARTCHAR char205
ENCODING 205
SWIDTH 21 0
DWIDTH 5 0
BBX 4 17 1 0
BITMAP
40
80
C0
C0
C0
C0
C0
C0
C0
C0
C0
C0
C0
C0
C0
C0
C0
ENDCHAR

STARTCHAR char206
ENCODING 206
SWIDTH 21 0
DWIDTH 5 0
BBX 6 18 -1 0
BITMAP
30
78
00
30
30
30
30
30
30
30
30
30
30
30
30
30
30
30
ENDCHAR

STARTCHAR char207
ENCODING 207
SWIDTH 21 0
DWIDTH 5 0
BBX 6 18 -1 0
BITMAP
0C
CC
00
30
30
30
30
30
30
30
30
30
30
30
30
30
30
30
ENDCHAR

STARTCHAR char209
ENCODING 209
SWIDTH 16 0
DWIDTH 14 0
BBX 11 18 1 0
BITMAP
1F80
2F00
0000
C060
C060
E060
F060
D060
D860
CC60
CC60
C660
C360
C360
C1E0
C1E0
C0E0
C060
ENDCHAR

STARTCHAR char210
ENCODING 210
SWIDTH 25 0
DWIDTH 16 0
BBX 14 17 0 0
BITMAP
0600
0000
0000
1FE0
3070
6018
601C
C00C
C00C
C00C
C00C
C00C
C01C
6018
7038
3E70
0FC0
ENDCHAR

STARTCHAR char211
ENCODING 211
SWIDTH 25 0
DWIDTH 16 0
BBX 14 17 0 0
BITMAP
0300
0200
0000
1FE0
3070
6018
601C
C00C
C00C
C00C
C00C
C00C
C01C
6018
7038
3E70
0FC0
ENDCHAR

STARTCHAR char212
ENCODING 212
SWIDTH 25 0
DWIDTH 16 0
BBX 14 18 0 0
BITMAP
0700
0D80
0000
0000
1FE0
3070
6018
601C
C00C
C00C
C00C
C00C
C00C
C01C
6018
7038
3E70
0FC0
ENDCHAR

STARTCHAR char213
ENCODING 213
SWIDTH 25 0
DWIDTH 16 0
BBX 14 19 0 0
BITMAP
0400
0EC0
1BC0
0000
0000
1FE0
3070
6018
601C
C00C
C00C
C00C
C00C
C00C
C01C
6018
7038
3E70
0FC0
ENDCHAR

STARTCHAR char214
ENCODING 214
SWIDTH 25 0
DWIDTH 16 0
BBX 14 18 0 0
BITMAP
00C0
0CC0
0000
0000
1FE0
3070
6018
601C
C00C
C00C
C00C
C00C
C00C
C01C
6018
7038
3E70
0FC0
ENDCHAR

STARTCHAR char216
ENCODING 216
SWIDTH 25 0
DWIDTH 16 0
BBX 15 14 -1 0
BITMAP
0FF6
1838
301C
302C
6066
60C6
6186
6106
6206
640E
380C
381C
3C38
47E0
ENDCHAR

STARTCHAR char217
ENCODING 217
SWIDTH 16 0
DWIDTH 14 0
BBX 12 17 0 0
BITMAP
0600
0000
C030
C030
C030
C030
C030
C030
C030
C030
C030
C030
C030
C030
6070
78E0
1F80
ENDCHAR

STARTCHAR char218
ENCODING 218
SWIDTH 16 0
DWIDTH 14 0
BBX 12 17 0 0
BITMAP
0200
0400
C030
C030
C030
C030
C030
C030
C030
C030
C030
C030
C030
C030
6070
78E0
1F80
ENDCHAR

STARTCHAR char219
ENCODING 219
SWIDTH 16 0
DWIDTH 14 0
BBX 12 18 0 0
BITMAP
0600
0F00
0000
C030
C030
C030
C030
C030
C030
C030
C030
C030
C030
C030
C030
6070
78E0
1F80
ENDCHAR

STARTCHAR char220
ENCODING 220
SWIDTH 16 0
DWIDTH 14 0
BBX 12 17 0 0
BITMAP
0D80
0000
C030
C030
C030
C030
C030
C030
C030
C030
C030
C030
C030
C030
6070
78E0
1F80
ENDCHAR

STARTCHAR char222
ENCODING 222
SWIDTH 3 0
DWIDTH 21 0
BBX 0 0 0 0
BITMAP
ENDCHAR

STARTCHAR char223
ENCODING 223
SWIDTH 3 0
DWIDTH 11 0
BBX 9 14 1 0
BITMAP
7C00
C300
C300
C300
C600
DC00
C700
C300
C380
C180
C380
C300
D700
DC00
ENDCHAR

STARTCHAR char224
ENCODING 224
SWIDTH 3 0
DWIDTH 11 0
BBX 10 13 0 0
BITMAP
1800
0000
3E00
6300
6180
4180
0780
3F80
E180
C180
C380
E7C0
3CC0
ENDCHAR

STARTCHAR char225
ENCODING 225
SWIDTH 3 0
DWIDTH 11 0
BBX 10 13 0 0
BITMAP
0C00
0800
3E00
6300
6180
4180
0780
3F80
E180
C180
C380
E7C0
3CC0
ENDCHAR

STARTCHAR char226
ENCODING 226
SWIDTH 3 0
DWIDTH 11 0
BBX 10 14 0 0
BITMAP
1C00
3600
0000
3E00
6300
6180
4180
0780
3F80
E180
C180
C380
E7C0
3CC0
ENDCHAR

STARTCHAR char227
ENCODING 227
SWIDTH 3 0
DWIDTH 11 0
BBX 10 14 0 0
BITMAP
3B00
3600
0000
3E00
6300
6180
4180
0780
3F80
E180
C180
C380
E7C0
3CC0
ENDCHAR

STARTCHAR char228
ENCODING 228
SWIDTH 3 0
DWIDTH 11 0
BBX 10 14 0 0
BITMAP
0300
3300
0000
3E00
6300
4180
4180
0780
3E80
E180
C180
C180
E7C0
3CC0
ENDCHAR

STARTCHAR char229
ENCODING 229
SWIDTH 3 0
DWIDTH 11 0
BBX 10 14 0 0
BITMAP
0C00
0E00
0C00
3E00
6300
6180
4180
0780
3F80
E180
C180
C380
E7C0
3DC0
ENDCHAR

STARTCHAR char230
ENCODING 230
SWIDTH 33 0
DWIDTH 18 0
BBX 17 11 -1 0
BITMAP
1E3E00
3FE300
61C380
618180
038180
1FFF80
718000
618000
E1C180
67E300
3C3E00
ENDCHAR

STARTCHAR char231
ENCODING 231
SWIDTH 3 0
DWIDTH 11 0
BBX 10 15 0 -4
BITMAP
1F00
3180
60C0
E0C0
C000
C000
C000
C0C0
60C0
7180
1F00
0000
0C00
0400
0C00
ENDCHAR

STARTCHAR char232
ENCODING 232
SWIDTH 3 0
DWIDTH 11 0
BBX 10 13 0 0
BITMAP
1800
0000
1E00
3300
6180
C080
C0C0
FFC0
C000
C000
6180
7180
1E00
ENDCHAR

STARTCHAR char233
ENCODING 233
SWIDTH 3 0
DWIDTH 11 0
BBX 10 13 0 0
BITMAP
0C00
0800
1E00
3300
6180
C080
C0C0
FFC0
C000
C000
6180
7180
1E00
ENDCHAR

STARTCHAR char234
ENCODING 234
SWIDTH 3 0
DWIDTH 11 0
BBX 10 14 0 0
BITMAP
1C00
3600
0000
1E00
3300
6180
C080
C0C0
FFC0
C000
C000
6180
7180
1E00
ENDCHAR

STARTCHAR char235
ENCODING 235
SWIDTH 3 0
DWIDTH 11 0
BBX 10 13 0 0
BITMAP
3600
0000
1E00
3300
6180
C180
C0C0
FFC0
C000
C000
6180
7180
1E00
ENDCHAR

STARTCHAR char236
ENCODING 236
SWIDTH 21 0
DWIDTH 5 0
BBX 3 13 0 0
BITMAP
40
00
60
60
60
60
60
60
60
60
60
60
60
ENDCHAR

STARTCHAR char237
ENCODING 237
SWIDTH 21 0
DWIDTH 5 0
BBX 4 13 1 0
BITMAP
60
40
60
60
60
60
60
60
60
60
60
60
60
ENDCHAR

STARTCHAR char238
ENCODING 238
SWIDTH 21 0
DWIDTH 5 0
BBX 6 14 -1 0
BITMAP
30
58
00
30
30
30
30
30
30
30
30
30
30
30
ENDCHAR

STARTCHAR char239
ENCODING 239
SWIDTH 21 0
DWIDTH 5 0
BBX 6 13 -1 0
BITMAP
CC
00
30
30
30
30
30
30
30
30
30
30
30
ENDCHAR

STARTCHAR char241
ENCODING 241
SWIDTH 8 0
DWIDTH 12 0
BBX 9 14 1 0
BITMAP
3E00
6E00
0000
DF00
F300
E180
C180
C180
C180
C180
C180
C180
C180
C180
ENDCHAR

STARTCHAR char242
ENCODING 242
SWIDTH 8 0
DWIDTH 12 0
BBX 10 13 0 0
BITMAP
0800
0000
1E00
7380
6180
E0C0
C0C0
C0C0
C0C0
C0C0
6180
7180
3F00
ENDCHAR

STARTCHAR char243
ENCODING 243
SWIDTH 8 0
DWIDTH 12 0
BBX 10 13 0 0
BITMAP
0400
0800
1E00
7380
6180
E0C0
C0C0
C0C0
C0C0
C0C0
6180
7180
3F00
ENDCHAR

STARTCHAR char244
ENCODING 244
SWIDTH 8 0
DWIDTH 12 0
BBX 10 14 0 0
BITMAP
1C00
1600
0000
1E00
7380
6180
E0C0
C0C0
C0C0
C0C0
C0C0
6180
7180
3F00
ENDCHAR

STARTCHAR char245
ENCODING 245
SWIDTH 8 0
DWIDTH 12 0
BBX 10 14 0 0
BITMAP
1F00
3600
0000
1E00
7380
6180
E0C0
C0C0
C0C0
C0C0
C0C0
6180
7180
3F00
ENDCHAR

STARTCHAR char246
ENCODING 246
SWIDTH 8 0
DWIDTH 12 0
BBX 10 14 0 0
BITMAP
0300
1B00
0000
1E00
7180
7180
E0C0
C0C0
C0C0
C0C0
E0C0
6080
7980
1F00
ENDCHAR

STARTCHAR char247
ENCODING 247
SWIDTH 3 0
DWIDTH 11 0
BBX 10 6 0 2
BITMAP
0C00
0000
FFC0
0000
0000
0C00
ENDCHAR

STARTCHAR char248
ENCODING 248
SWIDTH 8 0
DWIDTH 12 0
BBX 10 11 0 0
BITMAP
1E40
7380
6180
E3C0
C2C0
C4C0
C8C0
D0C0
6080
7180
9F00
ENDCHAR

STARTCHAR char249
ENCODING 249
SWIDTH 8 0
DWIDTH 12 0
BBX 9 13 1 0
BITMAP
1800
0000
C180
C180
C180
C180
C180
C180
C180
C180
C380
E380
3D80
ENDCHAR

STARTCHAR char250
ENCODING 250
SWIDTH 8 0
DWIDTH 12 0
BBX 9 13 1 0
BITMAP
0800
1000
C180
C180
C180
C180
C180
C180
C180
C180
C380
E380
3D80
ENDCHAR

STARTCHAR char251
ENCODING 251
SWIDTH 8 0
DWIDTH 12 0
BBX 9 14 1 0
BITMAP
1800
3C00
0000
C180
C180
C180
C180
C180
C180
C180
C180
C380
E380
3D80
ENDCHAR

STARTCHAR char252
ENCODING 252
SWIDTH 8 0
DWIDTH 12 0
BBX 9 14 1 0
BITMAP
0600
2600
0000
C180
C180
C180
C180
C180
C180
C180
C180
C380
E780
7D80
ENDCHAR

STARTCHAR char255
ENCODING 255
SWIDTH 43 0
DWIDTH 10 0
BBX 11 16 -1 -3
BITMAP
1B00
0000
E060
60C0
70C0
3180
3980
3980
1B00
1B00
0E00
0E00
0600
0C00
2C00
3800
ENDCHAR
ENDFONT
